<?xml version="1.0" encoding="UTF-8" standalone="no"?>
<svg
   xmlns:dc="http://purl.org/dc/elements/1.1/"
   xmlns:cc="http://creativecommons.org/ns#"
   xmlns:rdf="http://www.w3.org/1999/02/22-rdf-syntax-ns#"
   xmlns:svg="http://www.w3.org/2000/svg"
   xmlns="http://www.w3.org/2000/svg"
   viewBox="0 0 1000 1000"
   version="1.1"
   id="svg4">
  <metadata
     id="metadata10">
    <rdf:RDF>
      <cc:Work
         rdf:about="">
        <dc:format>image/svg+xml</dc:format>
        <dc:type
           rdf:resource="http://purl.org/dc/dcmitype/StillImage" />
        <dc:title></dc:title>
      </cc:Work>
    </rdf:RDF>
  </metadata>
  <defs
     id="defs8" />
  <path
     d="M625.5 686.7c-11.4-6.6-23.4-13.3-35.2-19.4l-10.4-19.4c45.6-34.7 78.2-99.6 80.4-157.2 40.1-43.1 13.3-153.9 6.2-180.2 9.3-29 4.8-60.9-12.5-86.2-18.6-27.2-49.4-42.9-84.5-42.9-27.6 0-56.9 9.3-87 27.5-107.5 1.1-124.1 47.6-124.6 98.5-5.7 15.5-30.9 93.5 5.5 180.1 1.1 58.5 34.2 125.3 80.8 160.6L425 686.6H279.5l-49 98s136.8 90.6 286.2 90.6c131.1 0 277.3-90.6 277.3-90.6l-73.5-98h-95zM500 10C229.4 10 10 229.4 10 500s219.4 490 490 490 490-219.4 490-490S770.6 10 500 10zm0 931C256.4 941 59 743.6 59 500 59 256.5 256.4 59 500 59s441 197.4 441 441-197.4 441-441 441z"
     id="path2"
     style="fill:#ffad46;fill-opacity:1" />
</svg>
